# xmcd
#
# Track frame offsets: 
#        150
#        23594
#        38966
#        52705
#        70328
#        82008
#        100989
#        115807
#        133679
#        149518
#
# Disc length: 2136 seconds
#
# Revision: 0
# Processed by: cddbd v1.5.2PL0 Copyright (c) Steve Scherf et al.
# Submitted via: ExactAudioCopyFreeDBPlugin 1.0
#
DISCID=8608560a
DTITLE=Scott Miller - Ladies Auxiliary
DYEAR=2017
DGENRE=
TTITLE0=Epic Love
TTITLE1=This River's Yours
TTITLE2=Jacki With an Eye
TTITLE3=Someday - Sometime
TTITLE4=Mother-in-Law
TTITLE5=Ten Miles down the Nine Mile Road
TTITLE6=Middle Man
TTITLE7=Lo Siento, Spanishburg, WVA
TTITLE8=With Body and Soul
TTITLE9=Get Along Everybody
EXTD=
EXTT0=
EXTT1=
EXTT2=
EXTT3=
EXTT4=
EXTT5=
EXTT6=
EXTT7=
EXTT8=
EXTT9=
PLAYORDER=
